<mxfile host="app.diagrams.net" modified="2020-04-09T12:59:38.638Z" agent="5.0 (Macintosh; Intel Mac OS X 10_11_6) AppleWebKit/537.36 (KHTML, like Gecko) Chrome/80.0.3987.149 Safari/537.36" etag="XqLuLZfwNEYh_qERGlqM" version="12.9.10" type="github">
  <diagram id="prtHgNgQTEPvFCAcTncT" name="Page-1">
    <mxGraphModel dx="786" dy="465" grid="1" gridSize="10" guides="1" tooltips="1" connect="1" arrows="1" fold="1" page="1" pageScale="1" pageWidth="827" pageHeight="1169" math="0" shadow="0">
      <root>
        <mxCell id="0" />
        <mxCell id="1" parent="0" />
        <mxCell id="3iY_4FW-NFx9kRwX1kDy-1" value="表现层" style="rounded=0;whiteSpace=wrap;html=1;verticalAlign=top;" vertex="1" parent="1">
          <mxGeometry x="300" y="220" width="120" height="60" as="geometry" />
        </mxCell>
        <mxCell id="3iY_4FW-NFx9kRwX1kDy-5" value="" style="edgeStyle=orthogonalEdgeStyle;rounded=0;orthogonalLoop=1;jettySize=auto;html=1;exitX=0.417;exitY=0.983;exitDx=0;exitDy=0;exitPerimeter=0;" edge="1" parent="1" source="3iY_4FW-NFx9kRwX1kDy-2">
          <mxGeometry relative="1" as="geometry">
            <mxPoint x="580" y="355" as="targetPoint" />
          </mxGeometry>
        </mxCell>
        <mxCell id="3iY_4FW-NFx9kRwX1kDy-2" value="业务层" style="rounded=0;whiteSpace=wrap;html=1;verticalAlign=top;" vertex="1" parent="1">
          <mxGeometry x="530" y="220" width="120" height="60" as="geometry" />
        </mxCell>
        <mxCell id="3iY_4FW-NFx9kRwX1kDy-4" value="redis" style="rounded=0;whiteSpace=wrap;html=1;" vertex="1" parent="1">
          <mxGeometry x="530" y="360" width="120" height="60" as="geometry" />
        </mxCell>
        <mxCell id="3iY_4FW-NFx9kRwX1kDy-13" style="edgeStyle=orthogonalEdgeStyle;rounded=0;orthogonalLoop=1;jettySize=auto;html=1;entryX=0;entryY=0.25;entryDx=0;entryDy=0;" edge="1" parent="1" source="3iY_4FW-NFx9kRwX1kDy-3" target="3iY_4FW-NFx9kRwX1kDy-7">
          <mxGeometry relative="1" as="geometry">
            <Array as="points">
              <mxPoint x="935" y="270" />
              <mxPoint x="935" y="305" />
            </Array>
          </mxGeometry>
        </mxCell>
        <mxCell id="3iY_4FW-NFx9kRwX1kDy-3" value="持久层" style="rounded=0;whiteSpace=wrap;html=1;verticalAlign=top;" vertex="1" parent="1">
          <mxGeometry x="760" y="220" width="120" height="100" as="geometry" />
        </mxCell>
        <mxCell id="3iY_4FW-NFx9kRwX1kDy-6" value="mybatis框架&lt;br&gt;&lt;br&gt;内部提供缓存" style="text;html=1;strokeColor=none;fillColor=none;align=center;verticalAlign=middle;whiteSpace=wrap;rounded=0;" vertex="1" parent="1">
          <mxGeometry x="760" y="260" width="90" height="20" as="geometry" />
        </mxCell>
        <mxCell id="3iY_4FW-NFx9kRwX1kDy-7" value="DB" style="rounded=0;whiteSpace=wrap;html=1;verticalAlign=top;" vertex="1" parent="1">
          <mxGeometry x="990" y="290" width="120" height="60" as="geometry" />
        </mxCell>
        <mxCell id="3iY_4FW-NFx9kRwX1kDy-8" value="" style="edgeStyle=orthogonalEdgeStyle;rounded=0;orthogonalLoop=1;jettySize=auto;html=1;entryX=0.75;entryY=1;entryDx=0;entryDy=0;exitX=0.75;exitY=0;exitDx=0;exitDy=0;" edge="1" parent="1" source="3iY_4FW-NFx9kRwX1kDy-4" target="3iY_4FW-NFx9kRwX1kDy-2">
          <mxGeometry relative="1" as="geometry">
            <mxPoint x="660" y="330" as="sourcePoint" />
            <mxPoint x="600" y="370" as="targetPoint" />
            <Array as="points">
              <mxPoint x="620" y="320" />
              <mxPoint x="620" y="320" />
            </Array>
          </mxGeometry>
        </mxCell>
        <mxCell id="3iY_4FW-NFx9kRwX1kDy-14" style="edgeStyle=orthogonalEdgeStyle;rounded=0;orthogonalLoop=1;jettySize=auto;html=1;entryX=1;entryY=0.75;entryDx=0;entryDy=0;exitX=0;exitY=0.5;exitDx=0;exitDy=0;" edge="1" parent="1" source="3iY_4FW-NFx9kRwX1kDy-7" target="3iY_4FW-NFx9kRwX1kDy-3">
          <mxGeometry relative="1" as="geometry">
            <mxPoint x="890" y="280" as="sourcePoint" />
            <mxPoint x="1000" y="315" as="targetPoint" />
            <Array as="points">
              <mxPoint x="990" y="315" />
              <mxPoint x="910" y="315" />
              <mxPoint x="910" y="295" />
            </Array>
          </mxGeometry>
        </mxCell>
      </root>
    </mxGraphModel>
  </diagram>
</mxfile>
